{
  "asset": {
    "version": "2.0",
    "generator": "THREE.GLTFExporter"
  },
  "scenes": [
    {
      "name": "AuxScene",
      "nodes": [
        2
      ]
    }
  ],
  "scene": 0,
  "nodes": [
    {
      "mesh": 0
    },
    {
      "mesh": 1
    },
    {
      "children": [
        0,
        1
      ]
    }
  ],
  "bufferViews": [
    {
      "buffer": 0,
      "byteOffset": 0,
      "byteLength": 1759608,
      "target": 34962,
      "byteStride": 12
    },
    {
      "buffer": 0,
      "byteOffset": 1759608,
      "byteLength": 1759608,
      "target": 34962,
      "byteStride": 12
    },
    {
      "buffer": 0,
      "byteOffset": 3519216,
      "byteLength": 287208,
      "target": 34962,
      "byteStride": 12
    },
    {
      "buffer": 0,
      "byteOffset": 3806424,
      "byteLength": 287208,
      "target": 34962,
      "byteStride": 12
    }
  ],
  "buffers": [
    {
      "name": "Insta1",
      "byteLength": 4093632,
      "uri": "Insta1.bin"
    }
  ],
  "accessors": [
    {
      "bufferView": 0,
      "componentType": 5126,
      "count": 146634,
      "max": [
        59.010990142822266,
        7.529581069946289,
        6.593406677246094
      ],
      "min": [
        -59.010990142822266,
        -7.529581069946289,
        -6.593406677246094
      ],
      "type": "VEC3",
      "byteOffset": 0
    },
    {
      "bufferView": 1,
      "componentType": 5126,
      "count": 146634,
      "max": [
        0.9996724128723145,
        0.999504566192627,
        1
      ],
      "min": [
        -0.9998611211776733,
        -0.9998590350151062,
        0.011829003691673279
      ],
      "type": "VEC3",
      "byteOffset": 0
    },
    {
      "bufferView": 2,
      "componentType": 5126,
      "count": 23934,
      "max": [
        59.010990142822266,
        7.529581069946289,
        -6.593406677246094
      ],
      "min": [
        -59.010990142822266,
        -7.529581069946289,
        -6.593406677246094
      ],
      "type": "VEC3",
      "byteOffset": 0
    },
    {
      "bufferView": 3,
      "componentType": 5126,
      "count": 23934,
      "max": [
        0,
        0,
        -1
      ],
      "min": [
        0,
        0,
        -1
      ],
      "type": "VEC3",
      "byteOffset": 0
    }
  ],
  "materials": [
    {
      "pbrMetallicRoughness": {
        "baseColorFactor": [
          0.43415363616478553,
          0.43415363616478553,
          0.43415363616478553,
          1
        ],
        "metallicFactor": 0.5,
        "roughnessFactor": 0.5
      },
      "doubleSided": true,
      "emissiveFactor": [
        0,
        0,
        0
      ],
      "alphaMode": "OPAQUE"
    }
  ],
  "meshes": [
    {
      "primitives": [
        {
          "mode": 4,
          "attributes": {
            "POSITION": 0,
            "NORMAL": 1
          },
          "material": 0
        }
      ]
    },
    {
      "primitives": [
        {
          "mode": 4,
          "attributes": {
            "POSITION": 2,
            "NORMAL": 3
          },
          "material": 0
        }
      ]
    }
  ]
}
