{
  "asset": {
    "version": "2.0",
    "generator": "THREE.GLTFExporter"
  },
  "scenes": [
    {
      "name": "AuxScene",
      "nodes": [
        2
      ]
    }
  ],
  "scene": 0,
  "nodes": [
    {
      "mesh": 0
    },
    {
      "mesh": 1
    },
    {
      "children": [
        0,
        1
      ]
    }
  ],
  "bufferViews": [
    {
      "buffer": 0,
      "byteOffset": 0,
      "byteLength": 1899648,
      "target": 34962,
      "byteStride": 12
    },
    {
      "buffer": 0,
      "byteOffset": 1899648,
      "byteLength": 1899648,
      "target": 34962,
      "byteStride": 12
    },
    {
      "buffer": 0,
      "byteOffset": 3799296,
      "byteLength": 1899648,
      "target": 34962,
      "byteStride": 12
    },
    {
      "buffer": 0,
      "byteOffset": 5698944,
      "byteLength": 399816,
      "target": 34962,
      "byteStride": 12
    },
    {
      "buffer": 0,
      "byteOffset": 6098760,
      "byteLength": 399816,
      "target": 34962,
      "byteStride": 12
    }
  ],
  "buffers": [
    {
      "name": "Visioment",
      "byteLength": 6498576,
      "uri": "Visioment.bin"
    }
  ],
  "accessors": [
    {
      "bufferView": 0,
      "componentType": 5126,
      "count": 158304,
      "max": [
        59.900333404541016,
        10.087115287780762,
        1.196013331413269
      ],
      "min": [
        -59.900333404541016,
        -10.087116241455078,
        -1.196013331413269
      ],
      "type": "VEC3",
      "byteOffset": 0
    },
    {
      "bufferView": 1,
      "componentType": 5126,
      "count": 158304,
      "max": [
        0.9965459704399109,
        0.996462345123291,
        1
      ],
      "min": [
        -0.9965459704399109,
        -0.996462345123291,
        0.05917317047715187
      ],
      "type": "VEC3",
      "byteOffset": 0
    },
    {
      "bufferView": 2,
      "componentType": 5126,
      "count": 158304,
      "max": [
        0.8631572127342224,
        0.9473065137863159,
        0.9911020994186401
      ],
      "min": [
        0,
        0.021219009533524513,
        0.021219009533524513
      ],
      "type": "VEC3",
      "byteOffset": 0
    },
    {
      "bufferView": 3,
      "componentType": 5126,
      "count": 33318,
      "max": [
        59.900333404541016,
        10.087115287780762,
        -1.196013331413269
      ],
      "min": [
        -59.900333404541016,
        -10.087116241455078,
        -1.196013331413269
      ],
      "type": "VEC3",
      "byteOffset": 0
    },
    {
      "bufferView": 4,
      "componentType": 5126,
      "count": 33318,
      "max": [
        0,
        0,
        -1
      ],
      "min": [
        0,
        0,
        -1
      ],
      "type": "VEC3",
      "byteOffset": 0
    }
  ],
  "materials": [
    {
      "pbrMetallicRoughness": {
        "metallicFactor": 0.5,
        "roughnessFactor": 0.5,
        "baseColorFactor": [
          1,
          1,
          1,
          1
        ]
      },
      "doubleSided": true,
      "emissiveFactor": [
        0,
        0,
        0
      ],
      "alphaMode": "OPAQUE"
    },
    {
      "pbrMetallicRoughness": {
        "metallicFactor": 0,
        "roughnessFactor": 0.9,
        "baseColorFactor": [
          1,
          1,
          1,
          1
        ]
      },
      "doubleSided": true,
      "extensions": {
        "KHR_materials_unlit": {}
      },
      "emissiveFactor": [
        0,
        0,
        0
      ],
      "alphaMode": "OPAQUE"
    }
  ],
  "meshes": [
    {
      "primitives": [
        {
          "mode": 4,
          "attributes": {
            "POSITION": 0,
            "NORMAL": 1,
            "COLOR_0": 2
          },
          "material": 0
        }
      ]
    },
    {
      "primitives": [
        {
          "mode": 4,
          "attributes": {
            "POSITION": 3,
            "NORMAL": 4
          },
          "material": 1
        }
      ]
    }
  ],
  "extensionsUsed": [
    "KHR_materials_unlit"
  ]
}
