{
  "asset": {
    "version": "2.0",
    "generator": "THREE.GLTFExporter"
  },
  "scenes": [
    {
      "name": "AuxScene",
      "nodes": [
        2
      ]
    }
  ],
  "scene": 0,
  "nodes": [
    {
      "mesh": 0
    },
    {
      "mesh": 1
    },
    {
      "children": [
        0,
        1
      ]
    }
  ],
  "bufferViews": [
    {
      "buffer": 0,
      "byteOffset": 0,
      "byteLength": 1462104,
      "target": 34962,
      "byteStride": 12
    },
    {
      "buffer": 0,
      "byteOffset": 1462104,
      "byteLength": 1462104,
      "target": 34962,
      "byteStride": 12
    },
    {
      "buffer": 0,
      "byteOffset": 2924208,
      "byteLength": 1462104,
      "target": 34962,
      "byteStride": 12
    },
    {
      "buffer": 0,
      "byteOffset": 4386312,
      "byteLength": 122832,
      "target": 34962,
      "byteStride": 12
    },
    {
      "buffer": 0,
      "byteOffset": 4509144,
      "byteLength": 122832,
      "target": 34962,
      "byteStride": 12
    }
  ],
  "buffers": [
    {
      "name": "Visio",
      "byteLength": 4631976,
      "uri": "Visio.bin"
    }
  ],
  "accessors": [
    {
      "bufferView": 0,
      "componentType": 5126,
      "count": 121842,
      "max": [
        59.900333404541016,
        9.736223220825195,
        0.6423899531364441
      ],
      "min": [
        -59.900333404541016,
        -9.736222267150879,
        -0.6423899531364441
      ],
      "type": "VEC3",
      "byteOffset": 0
    },
    {
      "bufferView": 1,
      "componentType": 5126,
      "count": 121842,
      "max": [
        0.9881772994995117,
        0.9880120158195496,
        1
      ],
      "min": [
        -0.9881772994995117,
        -0.9880120754241943,
        0.10943305492401123
      ],
      "type": "VEC3",
      "byteOffset": 0
    },
    {
      "bufferView": 2,
      "componentType": 5126,
      "count": 121842,
      "max": [
        0.9215818643569946,
        0.9559733271598816,
        0.9822505712509155
      ],
      "min": [
        0.016807375475764275,
        0.021219009533524513,
        0.021219009533524513
      ],
      "type": "VEC3",
      "byteOffset": 0
    },
    {
      "bufferView": 3,
      "componentType": 5126,
      "count": 10236,
      "max": [
        59.900333404541016,
        9.736223220825195,
        -0.6423899531364441
      ],
      "min": [
        -59.900333404541016,
        -9.736222267150879,
        -0.6423899531364441
      ],
      "type": "VEC3",
      "byteOffset": 0
    },
    {
      "bufferView": 4,
      "componentType": 5126,
      "count": 10236,
      "max": [
        0,
        0,
        -1
      ],
      "min": [
        0,
        0,
        -1
      ],
      "type": "VEC3",
      "byteOffset": 0
    }
  ],
  "materials": [
    {
      "pbrMetallicRoughness": {
        "metallicFactor": 0.5,
        "roughnessFactor": 0.5,
        "baseColorFactor": [
          1,
          1,
          1,
          1
        ]
      },
      "doubleSided": true,
      "emissiveFactor": [
        0,
        0,
        0
      ],
      "alphaMode": "OPAQUE"
    },
    {
      "pbrMetallicRoughness": {
        "metallicFactor": 0,
        "roughnessFactor": 0.9,
        "baseColorFactor": [
          1,
          1,
          1,
          1
        ]
      },
      "doubleSided": true,
      "extensions": {
        "KHR_materials_unlit": {}
      },
      "emissiveFactor": [
        0,
        0,
        0
      ],
      "alphaMode": "OPAQUE"
    }
  ],
  "meshes": [
    {
      "primitives": [
        {
          "mode": 4,
          "attributes": {
            "POSITION": 0,
            "NORMAL": 1,
            "COLOR_0": 2
          },
          "material": 0
        }
      ]
    },
    {
      "primitives": [
        {
          "mode": 4,
          "attributes": {
            "POSITION": 3,
            "NORMAL": 4
          },
          "material": 1
        }
      ]
    }
  ],
  "extensionsUsed": [
    "KHR_materials_unlit"
  ]
}
